<svg xmlns="http://www.w3.org/2000/svg" width="10.423" height="11.168" viewBox="0 0 10.423 11.168">
  <g id="arrow-up" transform="translate(98.423 87.168) rotate(180)">
    <path id="Path_11" data-name="Path 11" d="M93.212,249.956a.742.742,0,0,1-.526-.218l-4.467-4.467a.745.745,0,0,1,1.053-1.053l3.941,3.941,3.941-3.941a.745.745,0,0,1,1.053,1.053l-4.467,4.467A.742.742,0,0,1,93.212,249.956Z" transform="translate(0 -162.788)" fill="#00838f"/>
    <path id="Line_1" data-name="Line 1" d="M-23.255-13.453A.745.745,0,0,1-24-14.2v-9.058A.745.745,0,0,1-23.255-24a.745.745,0,0,1,.745.745V-14.2A.745.745,0,0,1-23.255-13.453Z" transform="translate(116.467 100)" fill="#00838f"/>
  </g>
</svg>
