<?xml version="1.0" encoding="utf-8"?>
<!-- Generator: Adobe Illustrator 26.2.1, SVG Export Plug-In . SVG Version: 6.00 Build 0)  -->
<svg version="1.1" xmlns="http://www.w3.org/2000/svg" xmlns:xlink="http://www.w3.org/1999/xlink" x="0px" y="0px"
	 viewBox="0 0 512 512" style="enable-background:new 0 0 512 512;" xml:space="preserve">
<style type="text/css">
	.st0{display:none;}
	.st1{display:inline;}
	.st2{fill:#FFFFFF;stroke:#000000;stroke-miterlimit:10;}
	.st3{fill:#212121;}
	.st4{fill:#FFFFFF;}
</style>
<g id="Layer_1_copy" class="st0">
	<g class="st1">
		<circle class="st2" cx="260" cy="256.3" r="255.7"/>
		<path class="st3" d="M260,0C116.3,0,0,114.4,0,255.5c0,112.9,74.5,208.6,177.7,242.4c13,2.4,17.8-5.5,17.8-12.3
			c0-6.1-0.2-22.1-0.3-43.4c-72.3,15.4-87.6-34.3-87.6-34.3c-11.8-29.5-28.9-37.4-28.9-37.4c-23.5-15.8,1.8-15.5,1.8-15.5
			c26.1,1.8,39.8,26.3,39.8,26.3c23.2,39.1,60.9,27.8,75.7,21.3c2.3-16.5,9-27.8,16.5-34.2C154.8,362,94.1,340,94.1,242.1
			c0-27.9,10.1-50.7,26.8-68.5c-2.9-6.5-11.7-32.4,2.3-67.6c0,0,21.8-6.8,71.5,26.2c20.8-5.7,42.9-8.5,65-8.6
			c22.1,0.1,44.2,2.9,65,8.6c49.4-33,71.2-26.2,71.2-26.2c14,35.2,5.2,61.2,2.6,67.6c16.6,17.9,26.6,40.7,26.6,68.5
			c0,98.1-60.8,119.7-118.6,126c9.1,7.7,17.5,23.3,17.5,47.3c0,34.2-0.3,61.7-0.3,69.9c0,6.7,4.5,14.7,17.9,12.1
			c104-33.5,178.4-129.3,178.4-242C519.9,114.4,403.5,0,260,0z"/>
	</g>
</g>
<g id="Layer_1">
	<circle class="st3" cx="256" cy="256" r="255.7"/>
	<path class="st4" d="M338.6,497.5c-13.3,2.6-17.9-5.4-17.9-12.1c0-8.3,0.3-35.8,0.3-69.9c0-23.9-8.4-39.6-17.5-47.3
		c57.8-6.3,118.6-27.9,118.6-126c0-27.9-10.1-50.7-26.6-68.5c2.6-6.5,11.4-32.4-2.6-67.6c0,0-21.8-6.8-71.2,26.2
		c-20.8-5.7-42.9-8.5-65-8.6c-22.1,0.1-44.2,2.9-65,8.6c-49.7-33-71.5-26.2-71.5-26.2c-14,35.2-5.2,61.2-2.3,67.6
		c-16.7,17.9-26.8,40.7-26.8,68.5c0,97.9,60.7,119.8,118.4,126.2c-7.4,6.4-14.1,17.6-16.5,34.2c-14.9,6.5-52.5,17.8-75.7-21.3
		c0,0-13.7-24.5-39.8-26.3c0,0-25.4-0.3-1.8,15.5c0,0,17.1,7.9,28.9,37.4c0,0,15.3,49.7,87.6,34.3c0.1,21.3,0.3,37.4,0.3,43.4
		c0,6.8-4.8,14.7-17.8,12.3c-14.1-4.6-27.7-10.4-40.6-17.2c36.5,20,78.3,31.4,122.8,31.4c51.7,0,99.8-15.4,140.1-41.8
		C379.1,481.6,359.5,490.8,338.6,497.5z"/>
</g>
<g id="Layer_2">
</g>
</svg>
